# AST/ASF file generated using VICON BodyLanguage
# -----------------------------------------------
:version 1.10
:name VICON
:units
  mass 1.0
  length 0.45
  angle deg
:documentation
   .ast/.asf automatically generated from VICON data using
   VICON BodyBuilder and BodyLanguage model FoxedUp or BRILLIANT.MOD
:root
   order TX TY TZ RX RY RZ
   axis XYZ
   position 0 0 0  
   orientation 0 0 0 
:bonedata
  begin
     id 1 
     name lhipjoint
     direction 0.643824 -0.71708 0.266994 
     length 2.52133 
     axis 0 0 0  XYZ
  end
  begin
     id 2 
     name lfemur
     direction 0.34202 -0.939693 0  
     length 7.51824  
     axis 0 0 20  XYZ
    dof rx ry rz
    limits (-160.0 20.0)
           (-70.0 70.0)
           (-60.0 70.0)
  end
  begin
     id 3 
     name ltibia
     direction 0.34202 -0.939693 0   
     length 7.3685   
     axis 0 0 20   XYZ
    dof rx
    limits (-10.0 170.0)
  end
  begin
     id 4 
     name lfoot
     direction 0.105419 -0.289636 0.951314   
     length 2.20972   
     axis -90 7.62852e-016 20   XYZ
    dof rx rz
    limits (-45.0 90.0)
           (-70.0 20.0)
  end
  begin
     id 5 
     name ltoes
     direction 1.53549e-011 -4.21833e-011 1   
     length 1.10139   
     axis -90 7.62852e-016 20   XYZ
    dof rx
    limits (-90.0 20.0)
  end
  begin
     id 6 
     name rhipjoint
     direction -0.608823 -0.743445 0.276811   
     length 2.43192  
     axis 0 0 0  XYZ 
  end
  begin
     id 7 
     name rfemur
     direction -0.34202 -0.939693 0   
     length 7.69715   
     axis 0 0 -20   XYZ
    dof rx ry rz
    limits (-160.0 20.0)
           (-70.0 70.0)
           (-70.0 60.0)
  end
  begin
     id 8 
     name rtibia
     direction -0.34202 -0.939693 0   
     length 7.44924   
     axis 0 0 -20   XYZ
    dof rx
    limits (-10.0 170.0)
 end
 begin
     id 9 
     name rfoot
     direction -0.103614 -0.284677 0.953007   
     length 2.22623  
     axis -90 -7.62852e-016 -20   XYZ
    dof rx rz
    limits (-45.0 90.0)
           (-20.0 70.0)
  end
  begin
     id 10 
     name rtoes
     direction -1.53537e-011 -4.22026e-011 1   
     length 1.11   
     axis -90 -7.62852e-016 -20   XYZ
    dof rx
    limits (-90.0 20.0)
  end
  begin
     id 11 
     name lowerback
     direction -0.0101212 0.99662 -0.0815298   
     length 2.08277   
     axis 0 0 0   XYZ
    dof rx ry rz
    limits (-20.0 45.0)
           (-30.0 30.0)
           (-30.0 30.0)
  end
  begin
     id 12 
     name upperback
     direction 0.024314 0.999591 -0.0150645   
     length 2.08524   
     axis 0 0 0   XYZ
    dof rx ry rz
    limits (-20.0 45.0)
           (-30.0 30.0)
           (-30.0 30.0)
  end
  begin
     id 13 
     name thorax
     direction 0.0285959 0.999323 0.0231357   
     length 2.09645   
     axis 0 0 0   XYZ
    dof rx ry rz
    limits (-20.0 45.0)
           (-30.0 30.0)
           (-30.0 30.0)
  end
  begin
     id 14 
     name lowerneck
     direction -0.065512 0.979301 0.191515   
     length 1.63798   
     axis 0 0 0   XYZ
    dof rx ry rz
    limits (-20.0 45.0)
           (-30.0 30.0)
           (-30.0 30.0)
  end
  begin
     id 15 
     name upperneck
     direction 0.0498479 0.98191 -0.182667   
     length 1.68731   
     axis 0 0 0   XYZ
    dof rx ry rz
    limits (-20.0 45.0)
           (-30.0 30.0)
           (-30.0 30.0)
  end
  begin
     id 16
     name head
     direction 0.0230358 0.996257 -0.0833175  
     length 1.69785  
     axis 0 0 0   XYZ
    dof rx ry rz
    limits (-20.0 45.0)
           (-30.0 30.0)
           (-30.0 30.0)
  end
  begin
     id 17 
     name lclavicle
     direction 0.967963 0.201165 -0.150269  
     length 3.63976  
     axis 0 0 0   XYZ
    dof ry rz
    limits (-20.0 10.0)
           (0.0 20.0)
  end
  begin
     id 18 
     name lhumerus
     direction 1 -4.48954e-011 -2.92837e-028   
     length 5.32462   
     axis 180 -30 -90   XYZ
    dof rx ry rz
    limits (-60.0 90.0)
           (-90.0 90.0)
           (-90.0 90.0)
  end
  begin
     id 19
     name lradius
     direction 1 -4.48958e-011 -6.39511e-027   
     length 3.48402   
     axis 180 -30 -90   XYZ
    dof rx
    limits (-10.0 170.0)
  end
  begin
     id 20
     name lwrist
     direction 1 -4.48975e-011 -1.1413e-026   
     length 1.74201   
     axis 6.88575e-015 90 90   XYZ
    dof ry
    limits (-180.0 0.0)
 end
  begin
     id 21 
     name lhand
     direction 1 -4.48899e-011 -2.28192e-026   
     length 0.572476   
     axis 1.45643e-014 90 90   XYZ
    dof rx rz
    limits (-90.0 90.0)
           (-45.0 45.0)
  end
  begin
     id 22 
     name lfingers
     direction 1 -4.49155e-011 -4.5684e-026   
     length 0.461545   
     axis 2.91283e-014 90 90   XYZ
    dof rx
    limits (0.0 90.0)
  end
  begin
     id 23
     name lthumb
     direction 0.707107 -6.34943e-011 0.707107   
     length 0.662688   
     axis -90 45 -2.25915e-014   XYZ
    dof rx rz
    limits (-45.0 45.0)
           (-45.0 45.0)
  end
  begin
     id 24 
     name rclavicle
     direction -0.964103 0.264019 -0.0282629   
     length 3.54491  
     axis 0 0 0   XYZ 
    dof ry rz
    limits (-10.0 20.0)
           (-20.0 0.0)
  end
  begin
     id 25 
     name rhumerus
     direction -1 -4.48964e-011 -2.45032e-027  
     length 5.33589   
     axis 180 30 90   XYZ
    dof rx ry rz
    limits (-90.0 60.0)
           (-90.0 90.0)
           (-90.0 90.0)
  end
  begin
     id 26 
     name rradius
     direction -1 -4.48987e-011 -1.55093e-027   
     length 3.64134   
     axis 180 30 90   XYZ
    dof rx
    limits (-10.0 170.0)
  end
  begin
     id 27 
     name rwrist
     direction -1 -4.4897e-011 -1.14128e-026   
     length 1.82067   
     axis 6.88575e-015 -90 -90   XYZ
    dof ry
    limits (-180.0 0.0)
  end
  begin
     id 28
     name rhand
     direction -1 -4.49021e-011 -2.28301e-026   
     length 0.734811   
     axis 1.45643e-014 -90 -90   XYZ
    dof rx rz
    limits (-90.0 90.0)
           (-45.0 45.0)
  end
  begin
     id 29
     name rfingers
     direction -1 -4.48862e-011 -4.56319e-026   
     length 0.592424   
     axis 2.91283e-014 -90 -90   XYZ
    dof rx
    limits (0.0 90.0)
  end
  begin
     id 30
     name rthumb
     direction -0.707107 -6.34978e-011 0.707107   
     length 0.850605   
     axis -90 -45 2.25915e-014   XYZ
    dof rx rz
    limits (-45.0 45.0)
           (-45.0 45.0)
  end
:hierarchy
  begin
    root lhipjoint rhipjoint lowerback
    lhipjoint lfemur
    lfemur ltibia
    ltibia lfoot
    lfoot ltoes
    rhipjoint rfemur
    rfemur rtibia
    rtibia rfoot
    rfoot rtoes
    lowerback upperback
    upperback thorax
    thorax lowerneck lclavicle rclavicle
    lowerneck upperneck
    upperneck head
    lclavicle lhumerus
    lhumerus lradius
    lradius lwrist
    lwrist lhand lthumb
    lhand lfingers
    rclavicle rhumerus
    rhumerus rradius
    rradius rwrist
    rwrist rhand rthumb
    rhand rfingers
  end

#!OML:ASF F:\VICON\USERDATA\INSTALL\rory3\rory3.ASF
:FULLY-SPECIFIED
:DEGREES
139
root -1.74467 18.3323 -3.32443 3.26017 -42.4363 -5.74983
lowerback 5.41159 -1.11779 -1.72102
upperback -6.69915 -2.38854 -6.2375
thorax -10.4424 -1.38419 -5.41406
lowerneck -27.7338 -12.3384 -13.5177
upperneck 0.0419618 -12.7182 9.70575
head 5.58702 -5.59493 3.5846
rclavicle 2.38542e-015 6.67916e-014
rhumerus 76.9336 -39.1031 -35.1666
rradius 31.3948
rwrist 18.8772
rhand -34.8441 -0.0448839
rfingers 7.12502
rthumb -7.99432 -29.8737
lclavicle 2.38542e-015 6.67916e-014
lhumerus 28.7538 -16.3757 38.3513
lradius 100.004
lwrist 5.67643
lhand -16.2686 20.775
lfingers 7.12502
lthumb 9.94102 50.5203
rfemur -5.42067 -3.39095 27.7986
rtibia 30.4282
rfoot -11.9052 -9.82455
rtoes 13.9322
lfemur -7.09852 3.36212 -7.32798
ltibia 37.678
lfoot -0.211144 -5.82258
ltoes -33.2387
140
root -1.78642 18.4231 -3.32912 3.14003 -42.447 -5.64169
lowerback 5.39653 -1.15103 -1.71206
upperback -6.6417 -2.45636 -6.48918
thorax -10.3927 -1.43237 -5.68557
lowerneck -27.8429 -12.2689 -13.1201
upperneck -0.111104 -12.7357 9.68548
head 5.53017 -5.60212 3.51873
rclavicle 1.19271e-014 1.43125e-013
rhumerus 77.2736 -39.3143 -35.7128
rradius 30.9654
rwrist 19.2789
rhand -34.3637 -0.125175
rfingers 7.12502
rthumb -7.53063 -29.9711
lclavicle 1.19271e-014 1.43125e-013
lhumerus 28.6349 -16.4407 37.7623
lradius 100.387
lwrist 5.28301
lhand -16.2994 20.638
lfingers 7.12502
lthumb 9.91131 50.3847
rfemur -5.31939 -3.38982 27.6179
rtibia 30.139
rfoot -10.0524 -10.048
rtoes 13.4954
lfemur -7.33023 3.19261 -7.06983
ltibia 37.454
lfoot 2.60514 -6.67838
ltoes -31.368
141
root -1.8258 18.5159 -3.33461 3.05642 -42.3985 -5.57187
lowerback 5.43467 -1.2701 -1.66878
upperback -6.59367 -2.63717 -6.70711
thorax -10.3972 -1.53694 -5.92374
lowerneck -28.3583 -12.3816 -12.9245
upperneck -0.0774069 -12.9316 10.1337
head 5.65744 -5.64789 3.58922
rclavicle -1.19271e-014 3.18055e-014
rhumerus 78.0992 -39.375 -36.8438
rradius 30.4919
rwrist 19.902
rhand -33.8179 0.0945455
rfingers 7.12502
rthumb -7.00379 -29.7696
lclavicle -1.19271e-014 3.18055e-014
lhumerus 28.3489 -16.3661 37.0883
lradius 100.815
lwrist 5.09723
lhand -16.3953 20.5524
lfingers 7.12502
lthumb 9.81876 50.3035
rfemur -5.22607 -3.3783 27.4565
rtibia 29.778
rfoot -8.05046 -10.3415
rtoes 12.3934
lfemur -7.63007 2.90597 -6.78549
ltibia 37.1508
lfoot 5.68707 -7.15954
ltoes -30.328
142
root -1.86569 18.6153 -3.33558 3.03668 -42.407 -5.43399
lowerback 5.44104 -0.971032 -1.77024
upperback -6.93576 -2.26695 -6.64258
thorax -10.7422 -1.35515 -5.86083
lowerneck -28.2823 -12.5444 -13.5826
upperneck 0.567979 -12.8739 9.4677
head 5.82796 -5.66645 3.46326
rclavicle 2.54444e-014 2.8625e-014
rhumerus 77.1597 -39.2622 -35.1234
rradius 30.2569
rwrist 19.7235
rhand -33.1885 -0.744336
rfingers 7.12502
rthumb -6.39614 -30.6278
lclavicle 2.54444e-014 2.8625e-014
lhumerus 28.0695 -17.2159 37.7871
lradius 101.186
lwrist 5.44556
lhand -15.79 19.9663
lfingers 7.12502
lthumb 10.4028 49.689
rfemur -5.23545 -3.33868 27.2227
rtibia 29.3831
rfoot -5.84858 -10.6269
rtoes 10.637
lfemur -8.03475 2.46563 -6.61315
ltibia 36.752
lfoot 9.34946 -7.31751
ltoes -29.7805
143
root -1.90678 18.7133 -3.33124 3.10804 -42.4973 -5.40229
lowerback 5.18305 -1.15576 -1.6427
upperback -6.74996 -2.50948 -6.95368
thorax -10.4281 -1.49728 -6.23722
lowerneck -28.0547 -12.806 -13.8283
upperneck -0.357758 -13.3494 11.3347
head 5.75554 -5.77017 4.03725
rclavicle 3.89618e-014 -2.22639e-014
rhumerus 79.0408 -39.381 -37.5533
rradius 29.5272
rwrist 20.834
rhand -32.7358 -1.24597
rfingers 7.12502
rthumb -5.95911 -31.1422
lclavicle 3.89618e-014 -2.22639e-014
lhumerus 28.0845 -16.744 36.7238
lradius 101.669
lwrist 5.89964
lhand -15.417 19.8286
lfingers 7.12502
lthumb 10.7625 49.5328
rfemur -5.23366 -3.08324 27.0432
rtibia 28.9499
rfoot -3.99769 -11.0532
rtoes 10.8049
lfemur -8.42387 1.82524 -6.37059
ltibia 36.3064
lfoot 13.2147 -6.78556
ltoes -26.9248
144
root -1.94514 18.8016 -3.32697 3.28109 -42.5521 -5.48194
lowerback 4.98991 -1.01048 -1.53763
upperback -6.89391 -2.29879 -6.91106
thorax -10.453 -1.40373 -6.28543
lowerneck -28.983 -12.5217 -12.9979
upperneck 0.56443 -12.9653 9.62743
head 5.90911 -5.67607 3.39746
rclavicle 1.03368e-014 0
rhumerus 79.7108 -39.1967 -37.9479
rradius 28.9916
rwrist 21.4438
rhand -32.5823 -1.42342
rfingers 7.12502
rthumb -5.81091 -31.3237
lclavicle 1.03368e-014 0
lhumerus 27.9256 -17.1208 36.8877
lradius 102.149
lwrist 5.90473
lhand -15.2549 19.8982
lfingers 7.12502
lthumb 10.9189 49.5943
rfemur -5.23901 -2.65252 26.9765
rtibia 28.4528
rfoot -2.28627 -11.7891
rtoes 12.0115
lfemur -8.86469 1.17382 -6.01585
ltibia 35.8993
lfoot 16.5965 -5.76177
ltoes -22.2731
145
root -1.98178 18.8894 -3.3269 3.2448 -42.5756 -5.42212
lowerback 4.88648 -0.954149 -1.54919
upperback -6.89468 -2.22386 -6.96502
thorax -10.3865 -1.3691 -6.34911
lowerneck -29.1254 -12.5628 -12.9998
upperneck 0.63418 -13.002 9.641
head 5.95517 -5.68737 3.39053
rclavicle 4.29375e-014 -3.49861e-014
rhumerus 80.6953 -39.065 -38.9558
rradius 28.4941
rwrist 22.1235
rhand -32.518 -1.6345
rfingers 7.12502
rthumb -5.74884 -31.5365
lclavicle 4.29375e-014 -3.49861e-014
lhumerus 27.9203 -17.2175 36.7117
lradius 102.617
lwrist 5.98851
lhand -15.3031 19.8698
lfingers 7.12502
lthumb 10.8724 49.5683
rfemur -5.12328 -2.28759 26.8148
rtibia 27.8826
rfoot -0.631517 -12.9051
rtoes 15.1011
lfemur -9.1593 0.579567 -5.76045
ltibia 35.5719
lfoot 19.0836 -5.41874
ltoes -18.8707
146
root -2.01871 18.9795 -3.32996 3.21955 -42.623 -5.39723
lowerback 4.74839 -1.08415 -1.49097
upperback -6.6964 -2.39573 -7.20268
thorax -10.1178 -1.46553 -6.61565
lowerneck -29.5766 -12.5004 -12.5067
upperneck 0.485181 -13.1157 10.3231
head 6.01263 -5.67562 3.51528
rclavicle 2.06736e-014 1.27222e-014
rhumerus 82.5246 -39.0497 -41.3571
rradius 27.839
rwrist 23.2465
rhand -32.4019 -1.80001
rfingers 7.12502
rthumb -5.63681 -31.705
lclavicle 2.06736e-014 1.27222e-014
lhumerus 28.1642 -16.5764 35.8007
lradius 102.99
lwrist 7.14132
lhand -14.3023 18.3362
lfingers 7.12502
lthumb 11.8376 47.9816
rfemur -4.97875 -2.01395 26.6913
rtibia 27.2463
rfoot 0.766281 -14.3442
rtoes 18.9065
lfemur -9.42879 0.21216 -5.46842
ltibia 35.3871
lfoot 20.7079 -6.44079
ltoes -18.9427
147
root -2.05889 19.0678 -3.3175 3.21673 -42.7531 -5.28269
lowerback 4.37475 -1.05443 -1.3906
upperback -6.61834 -2.33832 -7.39134
thorax -9.81661 -1.45196 -6.88804
lowerneck -29.6015 -12.4926 -12.1357
upperneck 0.335695 -13.2531 10.5268
head 5.97962 -5.72532 3.50799
rclavicle -3.26007e-014 -9.54166e-015
rhumerus 83.313 -39.0506 -42.2471
rradius 27.449
rwrist 23.4889
rhand -32.3917 -2.44985
rfingers 7.12502
rthumb -5.62694 -32.3551
lclavicle -3.26007e-014 -9.54166e-015
lhumerus 28.3357 -16.4862 35.3206
lradius 103.376
lwrist 7.67027
lhand -14.0611 18.283
lfingers 7.12502
lthumb 12.0702 47.9149
rfemur -4.83436 -1.85946 26.4002
rtibia 26.539
rfoot 2.31686 -15.5058
rtoes 20.4792
lfemur -9.70357 -0.127184 -5.33128
ltibia 35.3845
lfoot 22.0057 -7.13302
ltoes -17.4396
148
root -2.09457 19.1526 -3.30859 3.23996 -42.8073 -5.12016
lowerback 4.1311 -0.851599 -1.43634
upperback -6.79206 -2.0698 -7.39172
thorax -9.8314 -1.32149 -6.90269
lowerneck -28.984 -12.6823 -12.4336
upperneck 0.255126 -13.4619 10.4673
head 5.92695 -5.84776 3.49794
rclavicle -7.4743e-014 6.04305e-014
rhumerus 82.8303 -38.996 -41.3235
rradius 27.3217
rwrist 23.018
rhand -32.0917 -2.74382
rfingers 7.12502
rthumb -5.33729 -32.6566
lclavicle -7.4743e-014 6.04305e-014
lhumerus 28.521 -17.0445 35.4141
lradius 103.794
lwrist 7.63124
lhand -14.2746 19.1417
lfingers 7.12502
lthumb 11.8643 48.7856
rfemur -4.78354 -1.66067 26.1028
rtibia 25.8229
rfoot 4.1238 -16.6068
rtoes 19.8827
lfemur -10.0992 -0.681797 -5.28948
ltibia 35.4956
lfoot 23.3489 -7.53115
ltoes -14.9181
149
root -2.11614 19.2245 -3.32455 3.34595 -42.633 -5.25612
lowerback 4.45366 -0.660957 -1.48042
upperback -7.11735 -1.83566 -7.14079
thorax -10.3474 -1.20156 -6.64441
lowerneck -28.3333 -12.8629 -13.1179
upperneck 0.470599 -13.5118 10.1213
head 5.90286 -5.9154 3.50461
rclavicle 1.00983e-013 3.18055e-015
rhumerus 81.7617 -38.8014 -39.471
rradius 27.3593
rwrist 22.3355
rhand -31.3958 -2.57386
rfingers 7.12502
rthumb -4.66538 -32.5025
lclavicle 1.00983e-013 3.18055e-015
lhumerus 28.6151 -17.7506 35.8505
lradius 104.087
lwrist 7.53779
lhand -14.6712 18.9579
lfingers 7.12502
lthumb 11.4818 48.6235
rfemur -4.76985 -1.19025 26.1978
rtibia 25.1512
rfoot 5.54134 -18.1864
rtoes 19.6242
lfemur -10.5886 -1.39044 -4.94019
ltibia 35.6312
lfoot 24.7509 -8.10966
ltoes -13.1946
